<svg width="25" height="25" viewBox="0 0 25 25" fill="none" xmlns="http://www.w3.org/2000/svg">
<path d="M24.7656 23.7344L18.1094 17.125C19.6094 15.3906 20.4531 13.1875 20.4531 10.75C20.4531 5.40625 16.0469 1 10.7031 1C5.3125 1 1 5.40625 1 10.75C1 16.1406 5.35938 20.5 10.7031 20.5C13.0938 20.5 15.2969 19.6562 17.0312 18.1562L23.6406 24.8125C23.8281 24.9531 24.0156 25 24.25 25C24.4375 25 24.625 24.9531 24.7656 24.8125C25.0469 24.5312 25.0469 24.0156 24.7656 23.7344ZM10.75 19C6.15625 19 2.5 15.2969 2.5 10.75C2.5 6.20312 6.15625 2.5 10.75 2.5C15.2969 2.5 19 6.20312 19 10.75C19 15.3438 15.2969 19 10.75 19Z" fill="white"/>
</svg>
