<svg width="25" height="25" viewBox="0 0 25 25" fill="none" xmlns="http://www.w3.org/2000/svg">
<path d="M12.9531 4.48972L13.5156 3.9741C15.0625 2.42722 17.2656 1.7241 19.375 2.0991C22.6094 2.61472 25 5.42722 25 8.70847V8.94285C25 10.9116 24.1562 12.7866 22.75 14.0991L14.2656 22.021C13.9375 22.3491 13.4688 22.4897 13 22.4897C12.4844 22.4897 12.0156 22.3491 11.6875 22.021L3.20312 14.0991C1.79688 12.7866 1 10.9116 1 8.94285V8.70847C1 5.42722 3.34375 2.61472 6.57812 2.0991C8.6875 1.7241 10.8906 2.42722 12.4375 3.9741L12.9531 4.48972ZM12.9531 6.64597L11.3594 5.00535C10.1875 3.83347 8.5 3.27097 6.8125 3.55222C4.32812 3.9741 2.45312 6.13035 2.45312 8.70847V8.94285C2.45312 10.4897 3.10938 11.9428 4.23438 12.9741L12.7188 20.896C12.7656 20.9897 12.8594 20.9897 12.9531 20.9897C13.0938 20.9897 13.1875 20.9897 13.2344 20.896L21.7188 12.9741C22.8438 11.9428 23.5 10.4897 23.5 8.94285V8.70847C23.5 6.13035 21.625 3.9741 19.1406 3.55222C17.4531 3.27097 15.7656 3.83347 14.5938 5.00535L12.9531 6.64597Z" fill="white"/>
</svg>
