<svg width="25" height="25" viewBox="0 0 25 25" fill="none" xmlns="http://www.w3.org/2000/svg">
<path d="M8.73438 19.2812C8.73438 19.375 8.64062 19.4219 8.5 19.4219C8.35938 19.4688 8.26562 19.375 8.26562 19.2812C8.26562 19.1875 8.35938 19.0938 8.5 19.0938C8.64062 19.0938 8.73438 19.1875 8.73438 19.2812ZM7.28125 19.0469C7.28125 19.1406 7.375 19.2812 7.51562 19.2812C7.60938 19.3281 7.75 19.2812 7.79688 19.1875C7.79688 19.0938 7.75 19 7.60938 18.9531C7.46875 18.9062 7.32812 18.9531 7.28125 19.0469ZM9.39062 19C9.25 19 9.15625 19.0938 9.15625 19.2344C9.15625 19.3281 9.29688 19.375 9.4375 19.3281C9.57812 19.2812 9.67188 19.2344 9.625 19.1406C9.625 19.0469 9.48438 18.9531 9.39062 19ZM12.4375 1C5.96875 1 1 5.96875 1 12.4375C1 17.6406 4.23438 22.0938 8.92188 23.6875C9.53125 23.7812 9.71875 23.4062 9.71875 23.125C9.71875 22.7969 9.71875 21.2031 9.71875 20.2188C9.71875 20.2188 6.4375 20.9219 5.73438 18.8125C5.73438 18.8125 5.21875 17.4531 4.46875 17.125C4.46875 17.125 3.39062 16.375 4.51562 16.375C4.51562 16.375 5.6875 16.4688 6.34375 17.5938C7.375 19.4219 9.0625 18.9062 9.76562 18.5781C9.85938 17.8281 10.1406 17.3125 10.5156 16.9844C7.89062 16.7031 5.21875 16.3281 5.21875 11.8281C5.21875 10.5156 5.59375 9.90625 6.34375 9.0625C6.20312 8.73438 5.82812 7.51562 6.48438 5.875C7.42188 5.59375 9.71875 7.14062 9.71875 7.14062C10.6562 6.85938 11.6406 6.76562 12.625 6.76562C13.6562 6.76562 14.6406 6.85938 15.5781 7.14062C15.5781 7.14062 17.8281 5.54688 18.8125 5.875C19.4688 7.51562 19.0469 8.73438 18.9531 9.0625C19.7031 9.90625 20.1719 10.5156 20.1719 11.8281C20.1719 16.3281 17.4062 16.7031 14.7812 16.9844C15.2031 17.3594 15.5781 18.0625 15.5781 19.1875C15.5781 20.7344 15.5312 22.7031 15.5312 23.0781C15.5312 23.4062 15.7656 23.7812 16.375 23.6406C21.0625 22.0938 24.25 17.6406 24.25 12.4375C24.25 5.96875 18.9531 1 12.4375 1ZM5.54688 17.1719C5.45312 17.2188 5.5 17.3594 5.54688 17.4531C5.64062 17.5 5.73438 17.5469 5.82812 17.5C5.875 17.4531 5.875 17.3125 5.78125 17.2188C5.6875 17.1719 5.59375 17.125 5.54688 17.1719ZM5.03125 16.7969C4.98438 16.8906 5.03125 16.9375 5.125 16.9844C5.21875 17.0312 5.3125 17.0312 5.35938 16.9375C5.35938 16.8906 5.3125 16.8438 5.21875 16.7969C5.125 16.75 5.07812 16.75 5.03125 16.7969ZM6.53125 18.4844C6.48438 18.5312 6.48438 18.6719 6.625 18.7656C6.71875 18.8594 6.85938 18.9062 6.90625 18.8125C6.95312 18.7656 6.95312 18.625 6.85938 18.5312C6.76562 18.4375 6.625 18.3906 6.53125 18.4844ZM6.01562 17.7812C5.92188 17.8281 5.92188 17.9688 6.01562 18.0625C6.10938 18.1562 6.20312 18.2031 6.29688 18.1562C6.34375 18.1094 6.34375 17.9688 6.29688 17.875C6.20312 17.7812 6.10938 17.7344 6.01562 17.7812Z" fill="white"/>
</svg>
