<svg width="25" height="25" viewBox="0 0 25 25" fill="none" xmlns="http://www.w3.org/2000/svg">
<path d="M12.7656 3.23438C13.0469 3.51562 13.0469 4.03125 12.7656 4.3125L8.26562 8.8125C7.98438 9.09375 7.46875 9.09375 7.1875 8.8125C6.90625 8.53125 6.90625 8.01562 7.1875 7.73438L11.6875 3.23438C11.9688 2.95312 12.4844 2.95312 12.7656 3.23438ZM9.76562 13.3125C9.48438 13.5938 8.96875 13.5938 8.6875 13.3125C8.40625 13.0312 8.40625 12.5156 8.6875 12.2344L16.1875 4.73438C16.4688 4.45312 16.9844 4.45312 17.2656 4.73438C17.5469 5.01562 17.5469 5.53125 17.2656 5.8125L9.76562 13.3125ZM4 3C4 1.35938 5.3125 0 7 0H19C20.6406 0 22 1.35938 22 3V16.3594C22 16.9219 21.7188 17.5312 21.2969 17.9531L15.9062 23.3438C15.4844 23.7656 14.875 24 14.3125 24H7C5.3125 24 4 22.6875 4 21V3ZM20.5 3C20.5 2.20312 19.7969 1.5 19 1.5H7C6.15625 1.5 5.5 2.20312 5.5 3V21C5.5 21.8438 6.15625 22.5 7 22.5H13V17.25C13 16.0312 13.9844 15 15.25 15H20.5V3ZM20.4531 16.5H15.25C14.8281 16.5 14.5 16.875 14.5 17.25V22.5C14.5938 22.4531 14.7344 22.4062 14.8281 22.3125L20.2656 16.875C20.3594 16.7812 20.4062 16.6406 20.4531 16.5Z" fill="white"/>
</svg>
