<svg width="25" height="25" viewBox="0 0 25 25" fill="none" xmlns="http://www.w3.org/2000/svg">
<path d="M21.5 2H3.45312C2.65625 2 2 2.70312 2 3.54688V21.5C2 22.3438 2.65625 23 3.45312 23H21.5C22.2969 23 23 22.3438 23 21.5V3.54688C23 2.70312 22.2969 2 21.5 2ZM8.32812 20H5.23438V10.0156H8.32812V20ZM6.78125 8.60938C5.75 8.60938 4.95312 7.8125 4.95312 6.82812C4.95312 5.84375 5.75 5 6.78125 5C7.76562 5 8.5625 5.84375 8.5625 6.82812C8.5625 7.8125 7.76562 8.60938 6.78125 8.60938ZM20 20H16.8594V15.125C16.8594 14 16.8594 12.5 15.2656 12.5C13.625 12.5 13.3906 13.7656 13.3906 15.0781V20H10.2969V10.0156H13.25V11.375H13.2969C13.7188 10.5781 14.75 9.73438 16.25 9.73438C19.3906 9.73438 20 11.8438 20 14.5156V20Z" fill="white"/>
</svg>
