<svg width="160" height="64" viewBox="0 0 160 64" fill="none" xmlns="http://www.w3.org/2000/svg">
<rect x="2" y="2" width="156" height="60" stroke="white" stroke-width="4"/>
<path d="M30.2344 36.4062L35.8789 16.5625H38.6133L37.0312 24.2773L30.957 45H28.2422L30.2344 36.4062ZM24.3945 16.5625L28.8867 36.0156L30.2344 45H27.5391L20.6445 16.5625H24.3945ZM45.918 35.9961L50.3125 16.5625H54.082L47.207 45H44.5117L45.918 35.9961ZM39.0234 16.5625L44.5117 36.4062L46.5039 45H43.7891L37.9297 24.2773L36.3281 16.5625H39.0234ZM67.9297 19.082L58.5156 45H54.668L65.5078 16.5625H67.9883L67.9297 19.082ZM75.8203 45L66.3867 19.082L66.3281 16.5625H68.8086L79.6875 45H75.8203ZM75.332 34.4727V37.5586H59.3555V34.4727H75.332ZM100.742 41.9336V45H86.5234V41.9336H100.742ZM87.2656 16.5625V45H83.4961V16.5625H87.2656ZM112.031 31.4258V34.3945H102.5V31.4258H112.031ZM134.18 41.9336V45H119.121V41.9336H134.18ZM119.883 16.5625V45H116.113V16.5625H119.883ZM132.188 28.7891V31.8555H119.121V28.7891H132.188ZM133.984 16.5625V19.6484H119.121V16.5625H133.984Z" fill="white"/>
</svg>
